<?xml version="1.0" encoding="utf-8"?>
<!-- Generator: Adobe Illustrator 21.0.0, SVG Export Plug-In . SVG Version: 6.00 Build 0)  -->
<svg version="1.1" id="图层_1" xmlns="http://www.w3.org/2000/svg" xmlns:xlink="http://www.w3.org/1999/xlink" x="0px" y="0px"
	 viewBox="0 0 128 128" style="enable-background:new 0 0 128 128;" xml:space="preserve">
<style type="text/css">
	.st0{fill:#E5E5E5;}
</style>
<path class="st0" d="M99.5,66.4c-14.1,0-25.5,11.5-25.5,25.5s11.5,25.5,25.5,25.5S125,106,125,92S113.5,66.4,99.5,66.4z M99.5,110.1
	c-10,0-18.1-8.1-18.1-18.1s8.1-18.1,18.1-18.1S117.6,82,117.6,92S109.4,110.1,99.5,110.1z"/>
<path class="st0" d="M75.3,93.4v-0.8H18c-3.3,0-5.9-2.6-5.9-5.9V28.6c0-3.3,2.6-5.9,5.9-5.9h76.7c3.3,0,5.9,2.6,5.9,5.9v39.2h0.2
	c2.6,0,5.2,0.4,7.6,1.2V28.6c0-7.6-6.1-13.7-13.7-13.7H18c-7.6,0-13.7,6.1-13.7,13.7v58.1c0,7.6,6.1,13.7,13.7,13.7h58.3
	C75.6,98.2,75.3,95.8,75.3,93.4z M109.4,90.6l-16.3,9.3c-1.6,1-3.7,0.4-4.7-1.2l-0.3-0.6c-1-1.6-0.4-3.7,1.2-4.7l16.3-9.3
	c1.6-1,3.7-0.4,4.7,1.2l0.3,0.6C111.6,87.6,111,89.6,109.4,90.6z"/>
<g>
	<path class="st0" d="M43,41.5c0.2-0.1,0.4-0.2,0.7-0.3C43.5,41.3,43.2,41.4,43,41.5z"/>
	<path class="st0" d="M76.3,42.4c0,0,3.4,1.2,6.8,4.9c-1.3-4-3.6-7.4-6.7-10c-3.5-2.7-8.8-5.3-15.2-3.4c0,0,1.2-0.9,3.5-1.5
		C63,32,61.2,32,59.5,32.1c-11.7,0.7-22.3,8.6-26.7,19c2.3-3.7,5.5-6.9,9.1-9c0.4-0.2,0.7-0.4,1.1-0.6c0.2-0.1,0.4-0.2,0.7-0.3
		c3.3-1.6,6.9-2.5,10.8-2.5c11.6,0,21.4,8,24.1,18.9c0-0.2-0.1-0.3-0.1-0.5c0,0,2.6,5.6,1.5,11c1.4-2.3,2.4-4.8,3.1-7.4
		C83.9,56.9,84.5,48.4,76.3,42.4z"/>
	<path class="st0" d="M42,42.1c0.4-0.2,0.7-0.4,1.1-0.6C42.7,41.7,42.3,41.9,42,42.1z"/>
	<path class="st0" d="M54.5,38.7c-3.9,0-7.6,0.9-10.8,2.5c2.5-1.1,5.1-1.8,7.9-1.8c5.1,0,9.8,2,13.1,5.6c3.7,4,5.4,9.7,4.7,15.6
		c-0.4,3-1.3,5.8-2.7,8.4c-3.4,6.9-9.8,11.9-17.3,12.4c-0.4,0-0.8,0-1.1,0c-0.5,0-0.9,0.1-1.4,0.1c-1.2,0-2.5-0.2-3.6-0.4
		c0.8,0.4,1.6,0.7,2.4,0.9c2.5,0.7,6.1,1.4,9.9,1.2c0.8-0.1,1.6-0.1,2.4-0.3c0.1,0,0.1,0,0.2,0c0.2,0,0.5-0.1,0.7-0.1
		c3.4-0.7,6.7-2.4,9.1-5.9c0,0-0.2,1.5-1.6,3.4c1-0.5,2-1,2.9-1.6c3.7-2.6,11.9-9.9,9.4-21.3C76,46.7,66.2,38.7,54.5,38.7z"/>
	<path class="st0" d="M33.5,58.1c-1,9,5.7,16.5,15,16.5c9.2,0,17.5-7.4,18.5-16.4c0.1-1,0.1-2,0-2.9l-15,6.1l4.8,2.2
		c-2.7,7.5-9.7,6.7-11.3,6.3c-5-1.6-8.3-6.5-7.7-12.2c0-0.4,0.2-1.1,0.2-1.1c1.5-8,8.8-14.3,16.9-14.3c0,0,0.1,0,0.1,0
		c-1.2-0.3-2.5-0.5-3.8-0.5c-0.5,0-0.9,0-1.4,0.1C41.5,43,34.4,49.8,33.5,58.1z"/>
	<path class="st0" d="M67,55.2L67,55.2c0.1,0.9,0.1,1.9,0,2.9c-1,9-9.3,16.4-18.5,16.4c-9.2,0-15.9-7.3-14.9-16.4
		c0.9-8.3,8-15.2,16.4-16.2c-9.1,0.8-17,8.8-17.9,18.7c-1,10.4,6,18.8,15.6,18.8c0.1,0,0.1,0,0.2,0l0,0c11,0,16.5-9.9,16.5-9.9l0,0
		c0.8-1.3,1.3-2.5,1.8-3.8C67.9,60.2,67,55.3,67,55.2z"/>
</g>
</svg>
